<svg
  width="25"
  height="25"
  viewBox="0 0 25 25"
  fill="none"
  xmlns="http://www.w3.org/2000/svg"
>
  <path
    d="M22.6784 0.636957C22.5899 0.636957 20.6255 0.725442 18.1833 1.30945C14.8739 2.08812 12.3964 3.38001 10.8744 5.13203C10.5382 5.52136 10.2196 5.893 9.93645 6.24694C9.33475 6.40622 7.67122 6.86634 6.91024 7.00792C6.46782 7.09641 6.09618 7.34417 5.83072 7.71581C5.28211 8.51218 4.32646 10.1403 4.29107 10.2111L3.19385 12.087L5.19362 11.2198C6.06078 10.8305 7.28188 10.565 7.63583 10.7774C7.65352 10.7951 7.67122 10.7951 7.68892 10.9013C7.68892 11.4676 7.83049 12.0162 8.09595 12.5648C7.54734 12.9895 7.24649 13.662 7.28188 14.3522V16.7944H9.72409C10.4143 16.8298 11.0691 16.5113 11.5115 15.9804C12.0601 16.2458 12.6087 16.3697 13.175 16.3874C13.2635 16.4051 13.2812 16.4228 13.2812 16.4405C13.4936 16.7944 13.2281 18.0155 12.8388 18.8827L11.9716 20.8648L13.8475 19.7675C13.9183 19.7322 15.5464 18.7765 16.3428 18.2279C16.7144 17.9801 16.9622 17.5908 17.0507 17.1484C17.21 16.3874 17.6524 14.7239 17.8117 14.1222C18.1656 13.839 18.5373 13.5205 18.9266 13.1842C23.0323 9.55631 23.404 1.69878 23.4217 1.36254L23.4571 0.601562L22.6784 0.636957ZM7.97207 9.39703C7.51195 9.25546 6.98103 9.27315 6.46782 9.36164C6.66248 9.04309 6.85715 8.74224 7.01643 8.51218C7.05182 8.44139 7.12261 8.40599 7.21109 8.3883C7.56504 8.31751 8.11365 8.17593 8.66226 8.05205C8.34371 8.52987 8.13134 8.9723 7.97207 9.39703ZM10.3789 15.0778C10.2373 15.2725 9.98954 15.3787 9.75948 15.361H9.52942L10.9983 13.0603L8.69765 14.5469V14.2991C8.67996 14.0514 8.78614 13.8213 8.98081 13.6797L11.7947 11.4499C11.9362 11.326 12.1309 11.2375 12.3079 11.2021L13.0511 11.0252L12.8742 11.7684C12.8211 11.9631 12.7503 12.1401 12.6264 12.2817L10.3789 15.0778ZM15.6526 16.8652C15.6349 16.936 15.5995 17.0068 15.5287 17.0599C15.2987 17.2192 14.9978 17.4138 14.6793 17.6085C14.7678 17.0953 14.7855 16.5644 14.6439 16.1042C15.0686 15.945 15.511 15.7326 15.9889 15.4318C15.865 15.9627 15.7234 16.4936 15.6526 16.8652ZM17.9886 12.1224C15.5464 14.2814 14.2015 14.9185 13.2281 14.9539C13.2104 14.9539 13.2104 14.9539 13.1927 14.9539C12.8919 14.9539 12.6441 14.9008 12.3964 14.8124L13.7059 13.1488C13.9537 12.8303 14.1307 12.4763 14.2369 12.087L14.9447 9.11388L11.9716 9.82176C11.5823 9.91025 11.2106 10.0872 10.9098 10.335L9.24626 11.6446C9.15778 11.3968 9.10469 11.149 9.10469 10.8482C9.10469 10.8305 9.10469 10.8305 9.10469 10.8128C9.12238 9.85716 9.77718 8.49448 11.9362 6.05228C14.5377 3.09686 19.9176 2.30049 21.9351 2.10582C21.7404 4.14099 20.9441 9.52091 17.9886 12.1224Z"
    fill="#10D078"
  />
  <path
    d="M6.99036 20.2909C6.08781 20.4679 5.16756 20.521 4.24731 20.5387C3.71639 20.5387 3.18548 20.521 2.63687 20.4679C2.84924 20.1139 3.0439 19.76 3.22088 19.3884C3.55712 18.6274 3.80488 17.8664 3.99955 17.0877C4.17652 16.3445 4.38889 15.6189 4.65434 14.8933C4.9021 14.1677 5.18526 13.4421 5.5038 12.7166C5.22065 12.9997 4.97289 13.3006 4.74283 13.6191C4.51276 13.9377 4.2827 14.2739 4.07034 14.6101C3.6633 15.2826 3.30936 16.0259 3.00851 16.7515C2.72536 17.4594 2.42451 18.1673 2.07056 18.8044C1.71662 19.4415 1.30959 20.0255 0.814067 20.5918L0 21.5474L1.2565 21.7244C2.24753 21.866 3.25627 21.9368 4.26501 21.9014C4.77822 21.8837 5.27374 21.8483 5.78696 21.7598C6.28248 21.689 6.79569 21.5651 7.27352 21.4235C8.24686 21.1404 9.1848 20.6803 10.0166 20.0963C10.4236 19.7954 10.8129 19.4592 11.1315 19.0698C11.45 18.6805 11.7509 18.2734 11.9456 17.8133C11.2731 18.5212 10.459 19.0344 9.62723 19.4415C8.77777 19.8485 7.89291 20.1139 6.99036 20.2909Z"
    fill="#10D078"
  />
  <path
    d="M17.4753 9.06078C18.1124 9.06078 18.7495 8.81302 19.245 8.3352C20.2184 7.36186 20.2184 5.78681 19.245 4.81347C18.7672 4.33565 18.1478 4.08789 17.4753 4.08789C16.8028 4.08789 16.1834 4.35335 15.7056 4.81347C14.7323 5.78681 14.7323 7.36186 15.7056 8.3352C16.1834 8.81302 16.8205 9.06078 17.4753 9.06078ZM16.6966 5.80451C16.909 5.59215 17.1745 5.48596 17.4576 5.48596C17.7408 5.48596 18.0239 5.59215 18.2186 5.80451C18.6433 6.22924 18.6433 6.90173 18.2186 7.32646C17.7939 7.75119 17.1214 7.75119 16.6966 7.32646C16.2896 6.91943 16.2896 6.22924 16.6966 5.80451Z"
    fill="#10D078"
  />
</svg>