<svg height="20" viewBox="0 0 260 20" width="260" xmlns="http://www.w3.org/2000/svg"><g fill="none" fill-rule="evenodd"><circle cx="10" cy="10" fill="#227fbb" r="10"/><path d="m4.20577607 1.84875346 5.79422393 5.79422394 5.7942239-5.79422394c.9108676.64864737 1.7083753 1.44615504 2.3570226 2.35702261l-5.7942239 5.79422393 5.7942239 5.7942239c-.6486473.9108676-1.446155 1.7083753-2.3570226 2.3570226l-5.7942239-5.7942239-5.79422393 5.7942239c-.91086757-.6486473-1.70837524-1.446155-2.35702261-2.3570226l5.79422394-5.7942239-5.79422394-5.79422393c.64864737-.91086757 1.44615504-1.70837524 2.35702261-2.35702261z" fill="#fff"/><path d="m16.1320548 2.10017823c.330139.25663293.6437642.53350519.939013.82875396l-6.4818121 6.48181216-.88388353-.88388348zm-13.20312261.82875396 6.48181216 6.48181216-.88388348.88388345-6.42668264-6.42668262c.25663293-.33013895.53350519-.64376422.82875396-.93901299zm14.97088961 13.20312261c-.256633.330139-.5335052.6437642-.828754.939013l-6.4818121-6.4818121.8838834-.88388353zm-14.03187662 1.767767c-.33013895-.256633-.64376422-.5335052-.93901299-.828754l6.48181216-6.4818121.88388345.8838834z" fill="#e94b35"/><path d="m12.5.31504371v7.18495629h7.1849563c.2056612.79904981.3150437 1.63675108.3150437 2.5 0 .8632489-.1093825 1.7009502-.3150437 2.5h-7.1849563v7.1849563c-.7990498.2056612-1.6367511.3150437-2.5.3150437-.86324892 0-1.70095019-.1093825-2.5-.3150437v-7.1849563h-7.18495629c-.2056612-.7990498-.31504371-1.6367511-.31504371-2.5 0-.86324892.10938251-1.70095019.31504371-2.5h7.18495629v-7.18495629c.79904981-.2056612 1.63675108-.31504371 2.5-.31504371.8632489 0 1.7009502.10938251 2.5.31504371z" fill="#fff"/><path d="m11.6666667.13826407v8.19506926h8.1950692c.0909328.54201413.1382641 1.09881299.1382641 1.66666667 0 .5678537-.0473313 1.1246525-.1382641 1.6666667h-8.1950692v8.1950692c-.5420142.0909328-1.098813.1382641-1.6666667.1382641-.56785368 0-1.12465254-.0473313-1.66666667-.1382641v-8.1950692h-8.19506926c-.09093274-.5420142-.13826407-1.098813-.13826407-1.6666667 0-.56785368.04733133-1.12465254.13826407-1.66666667h8.19506926v-8.19506926c.54201413-.09093274 1.09881299-.13826407 1.66666667-.13826407.5678537 0 1.1246525.04733133 1.6666667.13826407z" fill="#e94b35"/><g transform="translate(20)"><path d="m.56901903 13.3333333h18.86196197c-1.3727881 3.8839746-5.0769182 6.6666667-9.430981 6.6666667-4.35406275 0-8.05819295-2.7826921-9.43098097-6.6666667z" fill="#000"/><path d="m.56901903 6.66666667h18.86196197c.3685049 1.04259641.569019 2.16454859.569019 3.33333333 0 1.1687847-.2005141 2.2907369-.569019 3.3333333h-18.86196197c-.36850496-1.0425964-.56901903-2.1645486-.56901903-3.3333333 0-1.16878474.20051407-2.29073692.56901903-3.33333333z" fill="#fff"/><path d="m19.430981 6.66666667h-18.86196197c1.37278802-3.88397458 5.07691822-6.66666667 9.43098097-6.66666667 4.3540628 0 8.0581929 2.78269209 9.430981 6.66666667z" fill="#1aaf5d"/><path d="m7.5.31504371v19.36991259c-4.31306803-1.110107-7.5-5.0253577-7.5-9.6849563 0-4.65959857 3.18693197-8.5748493 7.5-9.68495629z" fill="#e94b35"/></g><g transform="translate(40)"><path d="m1.10984671 5.41666667h17.78030659c.7092885 1.37300387 1.1098467 2.93139091 1.1098467 4.58333333 0 1.6519424-.4005582 3.2103295-1.1098467 4.5833333h-17.78030659c-.70928854-1.3730038-1.10984671-2.9313909-1.10984671-4.5833333 0-1.65194242.40055817-3.21032946 1.10984671-4.58333333z" fill="#f2c500"/><path d="m18.8901533 5.41666667h-17.78030659c1.66203651-3.21728385 5.01924821-5.41666667 8.89015329-5.41666667 3.8709051 0 7.2281168 2.19938282 8.8901533 5.41666667z" fill="#e94b35"/><path d="m1.10984671 14.5833333h17.78030659c-1.6620365 3.2172839-5.0192482 5.4166667-8.8901533 5.4166667-3.87090508 0-7.22811678-2.1993828-8.89015329-5.4166667z" fill="#e94b35"/><g transform="translate(1.666667 6.25)"><path d="m.83333333 2.08333333c.23011865 0 .41666667.18654802.41666667.41666667v4.58333333h.41666667v.41666667h-1.66666667v-.41666667h.41666667v-4.58333333c0-.23011865.18654802-.41666667.41666666-.41666667z" fill="#d9d9d9"/><path d="m1.875 2.29166667h4.58333333v3.61111111c0 1.246476-1.02601411 1.80555555-2.29166666 1.80555555-1.26565256 0-2.29166667-.55907955-2.29166667-1.80555555z" fill="#d9d9d9"/><g fill="#e94b35"><ellipse cx="4.166667" cy="1.041667" rx="2.083333" ry="1.041667"/><ellipse cx=".833333" cy="2.291667" rx="1" ry="1"/><path d="m2.083333 2.5h2.083333v2.083333h-2.083333z"/></g><path d="m2.08333333 4.58333333h2.08333334v1.45833334c0 .57529661-.46637006 1.04166666-1.04166667 1.04166666-.57529661 0-1.04166667-.46637005-1.04166667-1.04166666z" fill="#f2c500"/><path d="m4.16666667 4.58333333h2.08333333v1.45833334c0 .57529661-.46637005 1.04166666-1.04166667 1.04166666-.57529661 0-1.04166666-.46637005-1.04166666-1.04166666z" fill="#e94b35"/><path d="m7.5 2.08333333c.23011865 0 .41666667.18654802.41666667.41666667v4.58333333h.41666666v.41666667h-1.66666666v-.41666667h.41666666v-4.58333333c0-.23011865.18654802-.41666667.41666667-.41666667z" fill="#d9d9d9"/><ellipse cx="7.5" cy="2.291667" fill="#e94b35" rx="1" ry="1"/><ellipse cx="5.208333" cy="3.541667" fill="#e94b35" rx="1" ry="1"/></g></g><g transform="translate(60)"><path d="m6.66666667.56901903v18.86196197c-3.88397458-1.3727881-6.66666667-5.0769182-6.66666667-9.430981 0-4.35406275 2.78269209-8.05819295 6.66666667-9.43098097z" fill="#227fbb"/><path d="m13.3333333.56901903v18.86196197c-1.0425964.3685049-2.1645486.569019-3.3333333.569019-1.16878474 0-2.29073692-.2005141-3.33333333-.569019v-18.86196197c1.04259641-.36850496 2.16454859-.56901903 3.33333333-.56901903 1.1687847 0 2.2907369.20051407 3.3333333.56901903z" fill="#fff"/><path d="m13.3333333 19.430981v-18.86196197c3.8839746 1.37278802 6.6666667 5.07691822 6.6666667 9.43098097 0 4.3540628-2.7826921 8.0581929-6.6666667 9.430981z" fill="#e94b35"/></g><g transform="translate(80)"><path d="m19.430981 6.66666667h-18.86196197c1.37278802-3.88397458 5.07691822-6.66666667 9.43098097-6.66666667 4.3540628 0 8.0581929 2.78269209 9.430981 6.66666667z" fill="#000"/><path d="m.56901903 6.66666667h18.86196197c.3685049 1.04259641.569019 2.16454859.569019 3.33333333 0 1.1687847-.2005141 2.2907369-.569019 3.3333333h-18.86196197c-.36850496-1.0425964-.56901903-2.1645486-.56901903-3.3333333 0-1.16878474.20051407-2.29073692.56901903-3.33333333z" fill="#e94b35"/><path d="m.56901903 13.3333333h18.86196197c-1.3727881 3.8839746-5.0769182 6.6666667-9.430981 6.6666667-4.35406275 0-8.05819295-2.7826921-9.43098097-6.6666667z" fill="#f2c500"/></g><g transform="translate(100)"><path d="m6.66666667 19.430981v-18.86196197c1.04259641-.36850496 2.16454859-.56901903 3.33333333-.56901903 5.5228475 0 10 4.4771525 10 10s-4.4771525 10-10 10c-1.16878474 0-2.29073692-.2005141-3.33333333-.569019z" fill="#e94b35"/><path d="m6.66666667.56901903v18.86196197c-3.88397458-1.3727881-6.66666667-5.0769182-6.66666667-9.430981 0-4.35406275 2.78269209-8.05819295 6.66666667-9.43098097z" fill="#1aaf5d"/><path d="m6.66666667 13.75c-2.30118646 0-4.16666667-1.8654802-4.16666667-4.16666667 0-2.30118645 1.86548021-4.16666666 4.16666667-4.16666666 2.30118645 0 4.16666663 1.86548021 4.16666663 4.16666666 0 2.30118647-1.86548018 4.16666667-4.16666663 4.16666667zm0-.8333333c1.84094916 0 3.33333333-1.4923842 3.33333333-3.33333337 0-1.84094916-1.49238417-3.33333333-3.33333333-3.33333333-1.84094917 0-3.33333334 1.49238417-3.33333334 3.33333333 0 1.84094917 1.49238417 3.33333337 3.33333334 3.33333337z" fill="#f2c500"/><path d="m8.95833333 7.29166667v2.70833333c0 1.2656526-1.02601411 2.2916667-2.29166666 2.2916667-1.26565256 0-2.29166667-1.0260141-2.29166667-2.2916667v-2.70833333z" fill="#f2c500" fill-rule="nonzero"/><path d="m4.58333333 7.5h4.16666667v2.5c0 1.1505932-.9327401 2.0833333-2.08333333 2.0833333s-2.08333334-.9327401-2.08333334-2.0833333z" fill="#e94b35" fill-rule="nonzero"/><path d="m5.41666667 10c0 .6903559.55964406 1.25 1.25 1.25.69035593 0 1.25-.5596441 1.25-1.25v-1.66666667h-2.5z" fill="#fff"/><g fill="#2c97de"><path d="m6.45833333 8.75h.5v.5h-.5z"/><path d="m5.83333333 9.58333333h.5v.49999997h-.5z"/><path d="m7.08333333 9.58333333h.5v.49999997h-.5z"/><path d="m6.45833333 10.4166667h.5v.5h-.5z"/><path d="m6.45833333 9.58333333h.5v.49999997h-.5z"/></g></g><g transform="translate(120)"><path d="m19.430981 6.66666667h-18.86196197c1.37278802-3.88397458 5.07691822-6.66666667 9.43098097-6.66666667 4.3540628 0 8.0581929 2.78269209 9.430981 6.66666667z" fill="#fff"/><path d="m.56901903 6.66666667h18.86196197c.3685049 1.04259641.569019 2.16454859.569019 3.33333333 0 1.1687847-.2005141 2.2907369-.569019 3.3333333h-18.86196197c-.36850496-1.0425964-.56901903-2.1645486-.56901903-3.3333333 0-1.16878474.20051407-2.29073692.56901903-3.33333333z" fill="#227fbb"/><path d="m.56901903 13.3333333h18.86196197c-1.3727881 3.8839746-5.0769182 6.6666667-9.430981 6.6666667-4.35406275 0-8.05819295-2.7826921-9.43098097-6.6666667z" fill="#e94b35"/></g><g transform="translate(140)"><circle cx="10" cy="10" fill="#e94b35" r="10"/><path d="m10 12-2.93892626 2.045085 1.03681323-3.427051-2.85316955-2.16311897 3.57971208-.07294902 1.1755705-3.38196601 1.1755705 3.38196601 3.5797121.07294902-2.8531696 2.16311897 1.0368133 3.427051z" fill="#f2c500"/></g><g transform="translate(160)"><path d="m.56901903 13.3333333h18.86196197c-1.3727881 3.8839746-5.0769182 6.6666667-9.430981 6.6666667-4.35406275 0-8.05819295-2.7826921-9.43098097-6.6666667z" fill="#1aaf5d"/><path d="m.56901903 6.66666667h18.86196197c.3685049 1.04259641.569019 2.16454859.569019 3.33333333 0 1.1687847-.2005141 2.2907369-.569019 3.3333333h-18.86196197c-.36850496-1.0425964-.56901903-2.1645486-.56901903-3.3333333 0-1.16878474.20051407-2.29073692.56901903-3.33333333z" fill="#fff"/><path d="m19.430981 6.66666667h-18.86196197c1.37278802-3.88397458 5.07691822-6.66666667 9.43098097-6.66666667 4.3540628 0 8.0581929 2.78269209 9.430981 6.66666667z" fill="#e87e04"/><circle cx="10" cy="10" fill="#227fbb" r="2.916667"/><circle cx="10" cy="10" fill="#fff" r="2.5"/><circle cx="10" cy="10" fill="#227fbb" r="1"/></g><circle cx="190" cy="10" fill="#fff" r="10"/><circle cx="190" cy="10" fill="#e94b35" r="5"/><g transform="translate(200)"><circle cx="10" cy="10" fill="#fff" r="10"/><g fill="#000" transform="translate(1.875 3.4375)"><path d="m.52083333 1.04166667h3.64583334v.52083333h-3.64583334zm0 1.04166666h3.64583334v.52083334h-3.64583334zm0 1.04166667h3.64583334v.52083333h-3.64583334z" transform="matrix(.5591929 -.82903757 .82903757 .5591929 -.909915 2.976198)"/><path d="m.52083333 9.47916667h3.64583334v.52083333h-3.64583334zm0 1.04166663h1.5625v.5208334h-1.5625zm2.08333334 0h1.5625v.5208334h-1.5625zm-2.08333334 1.0416667h3.64583334v.5208333h-3.64583334z" transform="matrix(.5591929 .82903757 -.82903757 .5591929 9.971203 2.809395)"/><path d="m12.0833333 1.04166667h1.5625v.52083333h-1.5625zm2.0833334 0h1.5625v.52083333h-1.5625zm-2.0833334 1.04166666h3.6458334v.52083334h-3.6458334zm0 1.04166667h1.5625v.52083333h-1.5625zm2.0833334 0h1.5625v.52083333h-1.5625z" transform="matrix(.5591929 .82903757 -.82903757 .5591929 8.07303 -10.495662)"/><path d="m12.0833333 9.47916667h1.5625v.52083333h-1.5625zm2.0833334 0h1.5625v.52083333h-1.5625zm-2.0833334 1.04166663h1.5625v.5208334h-1.5625zm2.0833334 0h1.5625v.5208334h-1.5625zm-2.0833334 1.0416667h1.5625v.5208333h-1.5625zm2.0833334 0h1.5625v.5208333h-1.5625z" transform="matrix(.5591929 -.82903757 .82903757 .5591929 -2.808088 16.281255)"/></g><circle cx="10" cy="10" fill="#e94b35" r="4.166667"/><path d="m14.1666667 10c0 2.3011865-1.8654802 4.1666667-4.1666667 4.1666667-2.30118646 0-4.16666667-1.8654802-4.16666667-4.1666667 0 1.1505932.93274011 2.0833333 2.08333334 2.0833333s2.08333333-.9327401 2.08333333-2.0833333c0-1.15059323.9327401-2.08333333 2.0833333-2.08333333 1.1505933 0 2.0833334.9327401 2.0833334 2.08333333z" fill="#227fbb"/></g><g transform="translate(220)"><circle cx="10" cy="10" fill="#e94b35" r="10"/><g fill="#f2c500"><path d="m5.20833333 7.29166667-1.83682891 1.2781781.64800827-2.14190686-1.78323097-1.35194935 2.23732005-.04559314.73473156-2.11372875.73473157 2.11372875 2.23732005.04559314-1.78323097 1.35194935.64800827 2.14190686z"/><path d="m8.77721668 3.6714657-.48982104.3408475.1728022-.57117517-.47552826-.36051982.59661868-.01215817.19592842-.563661.19592842.563661.59661868.01215817-.47552826.36051982.1728022.57117517z" transform="matrix(.93969262 .34202014 -.34202014 .93969262 1.643823 -2.80547)"/><path d="m10.3768785 5.30318796-.489821.3408475.1728022-.57117517-.47552826-.36051982.59661866-.01215817.1959284-.56366101.1959285.56366101.5966186.01215817-.4755282.36051982.1728022.57117517z" transform="matrix(.8660254 -.5 .5 .8660254 -1.054901 5.843613)"/><path d="m10.4304849 7.45825504-.48982101.3408475.17280221-.57117517-.47552826-.36051982.59661866-.01215817.1959284-.563661.1959285.563661.5966186.01215817-.4755282.36051982.1728022.57117517z" transform="matrix(.98480775 .17364818 -.17364818 .98480775 1.381874 -1.7042)"/><path d="m8.77721668 9.08813237-.48982104.34084749.1728022-.57117516-.47552826-.36051983.59661868-.01215817.19592842-.563661.19592842.563661.59661868.01215817-.47552826.36051983.1728022.57117516z" transform="matrix(.93969262 .34202014 -.34202014 .93969262 3.496432 -2.478805)"/></g></g><g transform="translate(240)"><circle cx="10" cy="10" fill="#e94b35" r="10"/><g fill="#fff"><path d="m12.2909658 7.24313901c-.5340751-.36380484-1.1793516-.57647234-1.8742991-.57647234-1.8409492 0-3.33333337 1.49238416-3.33333337 3.33333333 0 1.8409492 1.49238417 3.3333333 3.33333337 3.3333333.6949475 0 1.340224-.2126675 1.8742991-.5764723-.7634665.8645615-1.8802085 1.4098057-3.12429913 1.4098057-2.30118646 0-4.16666667-1.8654802-4.16666667-4.1666667 0-2.30118646 1.86548021-4.16666667 4.16666667-4.16666667 1.24409063 0 2.36083263.5452442 3.12429913 1.40980568z"/><path d="m13.8770479 10.7913843-1.1020974.7669069.388805-1.2851441-1.0699386-.81116964 1.3423921-.02735588.4408389-1.26823725.4408389 1.26823725 1.3423921.02735588-1.0699386.81116964.3888049 1.2851441z" transform="matrix(.89100652 -.4539905 .4539905 .89100652 -2.9649 7.374978)"/></g></g></g></svg>