<svg width="16" height="16" viewBox="0 0 16 16" fill="none" xmlns="http://www.w3.org/2000/svg"><g id="tooltip/dark"><path id="Oval" opacity="0.151228" fill-rule="evenodd" clip-rule="evenodd" d="M8 15C11.866 15 15 11.866 15 8C15 4.13401 11.866 1 8 1C4.13401 1 1 4.13401 1 8C1 11.866 4.13401 15 8 15Z" fill="#9b9b9b"></path><path id="Vector" d="M6.01074 5.73577C6.17805 5.26017 6.50828 4.85912 6.94295 4.60366C7.37761 4.34821 7.88866 4.25483 8.38558 4.34006C8.8825 4.42529 9.33322 4.68364 9.65791 5.06935C9.9826 5.45506 10.1603 5.94323 10.1596 6.44741C10.1596 7.87067 8.02466 8.5823 8.02466 8.5823V9.70389" stroke="#9b9b9b" stroke-width="1.5" stroke-linecap="round" stroke-linejoin="round"></path><path id="Ellipse" d="M8.76038 12.0294C8.76038 12.4493 8.41997 12.7897 8.00006 12.7897C7.58015 12.7897 7.23975 12.4493 7.23975 12.0294C7.23975 11.6094 7.58015 11.269 8.00006 11.269C8.41997 11.269 8.76038 11.6094 8.76038 12.0294Z" fill="#9b9b9b"></path></g></svg>