<svg width="124" height="24" viewBox="0 0 124 24" fill="none" xmlns="http://www.w3.org/2000/svg"><g clip-path="url(#clip0)"><path fill-rule="evenodd" clip-rule="evenodd" d="M13.9301 10.0802H20.3548L15.161 13.8602L11.9958 16.166L11.9788 16.1704L11.9842 16.1744L11.9487 16.2002L6.75493 19.9502L8.73637 13.8602L3.5426 10.0802H9.96727L11.9487 3.99023L13.9301 10.0802ZM11.9842 16.1744L17.1425 19.9204L15.6114 15.2104L11.9958 16.166L11.9842 16.1744Z" fill="#10D078"></path><path fill-rule="evenodd" clip-rule="evenodd" d="M38.8574 10.0802H45.282L40.0883 13.8602L36.923 16.1659L36.9059 16.1704L36.9114 16.1744L36.8759 16.2002L31.6822 19.9502L33.6636 13.8602L28.4698 10.0802H34.8945L36.8759 3.99023L38.8574 10.0802ZM36.9114 16.1744L42.0697 19.9204L40.5386 15.2104L36.923 16.1659L36.9114 16.1744Z" fill="#10D078"></path><path fill-rule="evenodd" clip-rule="evenodd" d="M63.7848 10.0802H70.2094L65.0156 13.8602L61.8504 16.166L61.8334 16.1704L61.8388 16.1744L61.8033 16.2002L56.6095 19.9502L58.591 13.8602L53.3972 10.0802H59.8219L61.8033 3.99023L63.7848 10.0802ZM61.8388 16.1744L66.9971 19.9204L65.466 15.2104L61.8504 16.166L61.8388 16.1744Z" fill="#10D078"></path><path fill-rule="evenodd" clip-rule="evenodd" d="M88.7122 10.0802H95.1369L89.9431 13.8602L86.7779 16.1659L86.7608 16.1704L86.7663 16.1744L86.7308 16.2002L81.537 19.9502L83.5185 13.8602L78.3247 10.0802H84.7494L86.7308 3.99023L88.7122 10.0802ZM86.7663 16.1744L91.9246 19.9204L90.3934 15.2104L86.7779 16.1659L86.7663 16.1744Z" fill="#10D078"></path><mask id="mask0" maskUnits="userSpaceOnUse" x="103" y="3" width="18" height="17" style="mask-type: alpha;"><path fill-rule="evenodd" clip-rule="evenodd" d="M113.639 10.0802H120.064L114.87 13.8602L111.705 16.166L111.688 16.1704L111.694 16.1744L111.658 16.2002L106.464 19.9502L108.446 13.8602L103.252 10.0802H109.677L111.658 3.99023L113.639 10.0802ZM111.694 16.1744L116.852 19.9204L115.321 15.2104L111.705 16.166L111.694 16.1744Z" fill="white"></path></mask><g mask="url(#mask0)"><path d="M99.7095 0H111.718V24H99.7095V0Z" fill="#10D078"></path><path d="M120.659 0H111.659V24H120.659V0Z" fill="white"></path></g></g><defs><clipPath id="clip0"><rect width="123.637" height="24" fill="white"></rect></clipPath></defs></svg>